<?xml version="1.0" standalone="no"?>
<!DOCTYPE svg PUBLIC "-//W3C//DTD SVG 20010904//EN"
 "http://www.w3.org/TR/2001/REC-SVG-20010904/DTD/svg10.dtd">
<svg version="1.0" xmlns="http://www.w3.org/2000/svg"
 width="128.000000pt" height="128.000000pt" viewBox="0 0 128.000000 128.000000"
 preserveAspectRatio="xMidYMid meet">

<g transform="translate(0.000000,128.000000) scale(0.100000,-0.100000)"
fill="#000000" stroke="none">
<path d="M235 1195 c-22 -8 -41 -15 -42 -15 -2 0 -3 -7 -3 -15 0 -16 -36 -39
-49 -31 -9 6 -69 -55 -94 -95 -26 -44 -50 -139 -44 -181 6 -47 29 -75 67 -83
16 -3 36 -18 46 -32 9 -14 28 -36 43 -49 l26 -23 -31 -33 c-35 -36 -57 -77
-68 -122 -4 -16 -18 -43 -32 -59 -31 -36 -32 -94 -3 -131 11 -14 27 -26 35
-26 11 0 14 -15 14 -62 0 -35 5 -80 10 -100 18 -63 33 -68 222 -68 162 0 168
1 195 24 26 23 28 30 31 115 3 63 8 91 16 91 17 0 52 40 59 68 8 33 -11 90
-33 102 -11 6 -20 21 -20 33 -1 32 -33 98 -69 139 l-31 36 24 16 c14 8 33 29
42 46 10 16 27 30 37 30 10 0 32 14 49 31 29 29 30 33 26 97 -15 211 -234 365
-423 297z m237 -69 c51 -30 128 -123 128 -153 0 -24 -29 -14 -47 17 -11 19
-25 30 -40 30 -13 0 -44 8 -71 18 -42 16 -53 17 -86 6 -51 -18 -136 -29 -136
-18 0 18 65 88 107 114 51 32 72 30 145 -14z m-8 -139 c42 -10 51 -17 64 -47
20 -47 13 -147 -13 -183 -69 -94 -271 -104 -352 -16 -45 50 -56 127 -27 199
l16 40 77 1 c42 0 94 6 116 14 22 7 47 11 55 8 8 -3 37 -10 64 -16z m-382
-123 c-4 -54 -4 -55 -23 -38 -23 21 -24 51 -2 76 25 28 28 23 25 -38z m538 1
c0 -24 -6 -37 -20 -45 -19 -10 -20 -8 -20 45 0 53 1 55 20 45 14 -8 20 -21 20
-45z m-246 -240 c-8 -21 -51 -30 -69 -15 -26 21 -17 30 30 30 35 0 43 -3 39
-15z"/>
<path d="M174 906 c-9 -23 0 -51 16 -51 10 0 15 10 15 29 0 32 -21 47 -31 22z"/>
<path d="M455 900 c-7 -22 11 -53 26 -44 5 3 9 18 9 35 0 34 -25 40 -35 9z"/>
<path d="M274 879 c-10 -17 20 -40 54 -41 34 -1 62 16 62 38 0 17 -14 18 -42
3 -14 -8 -23 -8 -31 0 -14 14 -34 14 -43 0z"/>
<path d="M894 1076 c-43 -19 -101 -82 -115 -123 -19 -57 -7 -137 27 -186 42
-59 95 -87 166 -87 69 0 95 9 141 49 101 89 91 247 -21 325 -34 24 -55 31
-105 33 -38 2 -74 -2 -93 -11z m174 -53 c48 -35 72 -81 72 -135 0 -98 -53
-158 -145 -166 -114 -9 -201 84 -180 194 7 41 58 101 100 121 40 18 120 11
153 -14z"/>
<path d="M926 999 c-17 -14 -26 -30 -26 -50 0 -36 26 -40 40 -5 10 28 28 37
53 24 26 -13 21 -47 -8 -60 -22 -10 -26 -17 -23 -47 3 -38 17 -44 33 -15 6 10
20 27 33 37 33 27 31 89 -4 116 -15 12 -37 21 -49 21 -12 0 -34 -9 -49 -21z"/>
<path d="M960 770 c0 -15 5 -20 18 -18 9 2 17 10 17 18 0 8 -8 16 -17 18 -13
2 -18 -3 -18 -18z"/>
<path d="M845 627 c-44 -20 -65 -48 -73 -98 -6 -37 -11 -44 -40 -51 -33 -9
-62 -49 -62 -88 0 -35 29 -79 55 -86 24 -6 25 -9 25 -91 0 -80 2 -86 29 -114
l29 -29 170 0 169 0 27 26 c24 25 26 33 26 110 0 82 0 84 30 99 16 8 34 24 40
34 28 53 -6 141 -55 141 -18 0 -24 7 -30 38 -8 46 -30 84 -59 103 -30 19 -241
24 -281 6z m269 -49 c15 -13 29 -38 32 -55 l7 -33 -172 0 -171 0 0 26 c0 34
17 63 43 74 12 5 70 9 129 9 97 1 109 -1 132 -21z"/>
</g>
</svg>
